<svg width="235" height="27" viewBox="0 0 235 27" fill="none" xmlns="http://www.w3.org/2000/svg">
<path d="M219.829 14.9359H209.518V11.5785H219.796L219.829 14.9359Z" fill="#E5F2F8"/>
<path d="M222.516 4.09361H209.768L208.522 0.73291H222.516V4.09361Z" fill="#E5F2F8"/>
<path d="M222.516 25.7522H209.768L208.522 22.3915H222.516V25.7522Z" fill="#E5F2F8"/>
<path d="M195.641 16.8773L201.772 25.7522H197.23L191.239 17.5038" fill="#E5F2F8"/>
<path d="M190.881 17.0175L192.679 19.4809L196.983 18.8153L195.156 16.179L190.881 17.0175Z" fill="#E5F2F8"/>
<path d="M191.266 17.4809H185.305V13.8233H191.504C194.548 13.8233 196.757 12.3224 196.757 9.15423C196.757 5.98604 194.591 4.40031 191.253 4.40031H185.305V0.73291H191.478C197.351 0.73291 201.067 3.9011 201.067 9.11182C201.067 12.9913 198.982 15.6179 195.772 16.8251C194.33 17.3482 192.797 17.5703 191.266 17.4777" fill="#E5F2F8"/>
<path d="M76.8068 14.0746C76.8068 21.4975 72.5129 26.3329 65.3412 26.3329C57.5855 26.3329 52.874 20.4958 52.874 13.2817C52.874 5.98604 57.7682 0.191284 65.4685 0.191284C71.6678 0.191284 74.389 3.39863 74.389 3.39863L71.9713 6.57009C71.9713 6.57009 69.6384 4.1034 65.4685 4.1034C60.4209 4.1034 57.1287 8.10687 57.1287 13.2752C57.1287 18.4435 60.3393 22.3752 65.3412 22.3752C69.7199 22.3752 72.4313 19.4582 72.4313 15.2459V14.5933L76.8068 14.0746Z" fill="#E5F2F8"/>
<path d="M152.183 23.2724C152.183 23.2724 149.779 26.3329 144.026 26.3329C136.355 26.3329 131.393 20.4957 131.393 13.2817C131.399 5.98601 136.352 0.187988 144.023 0.187988C149.779 0.187988 152.448 3.31376 152.448 3.31376L150.069 6.52437C148.485 4.96388 146.348 4.09353 144.124 4.10336C139.161 4.10336 135.699 8.10684 135.699 13.2751C135.699 18.4434 139.145 22.3751 144.124 22.3751C146.345 22.3944 148.486 21.5415 150.085 19.9998L152.183 23.2724Z" fill="#E5F2F8"/>
<path d="M226.161 4.42971C226.525 4.70348 226.966 4.85434 227.421 4.8604C228.021 4.8604 228.282 4.60917 228.282 4.24699C228.282 3.88482 228.073 3.73473 227.274 3.49002C226.279 3.19311 225.796 2.8603 225.796 2.16206C225.796 1.39856 226.377 0.892822 227.427 0.892822C228.533 0.892822 228.977 1.34635 228.977 1.34635L228.579 1.94671C228.248 1.69663 227.842 1.56558 227.427 1.57475C226.925 1.57475 226.605 1.77704 226.605 2.13269C226.605 2.43613 226.843 2.58622 227.584 2.80809C228.661 3.11154 229.091 3.50307 229.091 4.19479C229.091 4.9485 228.55 5.54233 227.437 5.54233C226.826 5.57759 226.224 5.37932 225.753 4.98765L226.161 4.42971Z" fill="#E5F2F8"/>
<path d="M233.451 2.34803L232.168 4.02512H231.894L230.619 2.37087V5.4477H229.888V1.00049H230.449L232.028 3.07564L233.617 1.00049H234.178V5.4477H233.451V2.34803Z" fill="#E5F2F8"/>
<path d="M158.445 24.8157L158.426 24.8189L158.063 25.7521H158.08L158.445 24.8157Z" fill="#E5F2F8"/>
<path d="M174.048 25.7521H174.068L173.464 24.2773L174.048 25.7521Z" fill="#E5F2F8"/>
<path d="M11.9409 12.2213L14.4794 15.8626L19.9935 8.4462V0.73291L11.9409 12.2213Z" fill="#E5F2F8"/>
<path d="M11.9418 12.2213L3.88916 0.73291V8.4462L9.40332 15.8626L10.777 17.7126H13.1033L14.4803 15.8626L11.9418 12.2213Z" fill="#E5F2F8"/>
<path d="M0 0.73291V25.7522H3.88927V8.4462V0.73291H0Z" fill="#E5F2F8"/>
<path d="M19.9941 0.73291V8.4462V25.7522H23.8834V0.73291H19.9941Z" fill="#E5F2F8"/>
<path d="M3.88916 0.73291L6.03609 3.79996V11.3371L3.88916 8.4462V0.73291Z" fill="#E5F2F8"/>
<path d="M19.9935 0.73291L17.8433 3.79996V11.3371L19.9935 8.4462V0.73291Z" fill="#E5F2F8"/>
<path d="M11.9409 12.2213L13.295 10.2897L16.0194 13.7939L14.4794 15.8626L11.9409 12.2213Z" fill="#E5F2F8"/>
<path d="M72.2871 14.1659C72.2871 14.1659 72.6688 15.1969 72.2349 17.122H76.5092C76.729 16.1525 76.8287 15.1597 76.8061 14.1659H72.2871Z" fill="#E5F2F8"/>
<path d="M81.061 0.73291V25.7522H85.1885V13.6014V7.98941V0.73291H81.061Z" fill="#E5F2F8"/>
<path d="M85.1885 0.73291V7.98941L98.5269 25.7522V18.4076L85.1885 0.73291Z" fill="#E5F2F8"/>
<path d="M98.5301 0.73291V18.4108L98.5269 18.4076V25.7522H102.661V0.73291H98.5301Z" fill="#E5F2F8"/>
<path d="M85.1885 0.73291V7.98941L86.8264 10.169V2.90268L85.1885 0.73291Z" fill="#E5F2F8"/>
<path d="M131.547 11.0858C131.547 11.0858 134.186 17.4972 136.565 17.4972C136.565 17.4972 138.017 20.9917 141.339 21.9216C144.66 22.8515 147.796 22.2707 150.07 19.9966C150.07 19.9966 150.579 21.6965 148.194 22.6884C145.809 23.6803 141.763 24.3687 139.329 23.4715C136.895 22.5742 133.217 18.0487 132.594 16.4662C131.971 14.8837 131.485 11.4904 131.547 11.0858Z" fill="#E5F2F8"/>
<path d="M150.069 19.9966C147.158 22.7471 144.072 23.0277 141.481 22.4078C141.285 22.3588 141.09 22.3132 140.884 22.2512L140.786 22.2251C140.109 22.0113 139.447 21.7507 138.806 21.4452L138.665 21.3767C138.427 21.2593 138.199 21.1353 137.974 21.008C137.869 20.9493 137.768 20.8938 137.673 20.8351C133.902 18.5511 132.156 14.9066 131.546 11.0858C131.451 11.8141 131.398 12.5473 131.389 13.2817C131.387 13.3186 131.387 13.3557 131.389 13.3926C131.441 20.4077 136.065 25.9838 143.364 26.3329C149.563 26.6299 152.431 23.1223 152.431 23.1223L150.069 19.9966Z" fill="#E5F2F8"/>
<path d="M185.301 4.40358V0.73291H181.174V25.7522H185.301V17.494V13.8266V4.40358Z" fill="#E5F2F8"/>
<path d="M187.461 0.73291H185.305V4.41989H187.461V0.73291Z" fill="#E5F2F8"/>
<path d="M212.344 0.73291H210.188V4.09361H212.344V0.73291Z" fill="#E5F2F8"/>
<path d="M212.344 11.5361H210.188V14.8968H212.344V11.5361Z" fill="#E5F2F8"/>
<path d="M212.344 22.3915H210.188V25.7522H212.344V22.3915Z" fill="#E5F2F8"/>
<path d="M187.461 13.8103H185.305V17.4973H187.461V13.8103Z" fill="#E5F2F8"/>
<path d="M174.868 14.9587L174.616 16.5477L173.941 14.9587H174.868Z" fill="#E5F2F8"/>
<path d="M159.045 24.8157L159.022 24.8189L158.66 25.7521H158.676L159.045 24.8157Z" fill="#E5F2F8"/>
<path d="M174.645 25.7521H174.668L174.064 24.2773L174.645 25.7521Z" fill="#E5F2F8"/>
<path d="M167.336 8.10366L166.318 5.5293L167.336 8.10366Z" fill="#E5F2F8"/>
<path d="M169.189 3.46715L168.028 0.73291L169.189 3.46715Z" fill="#E5F2F8"/>
<path d="M169.189 3.46715L168.028 0.73291L166.318 5.52925L167.336 8.10361L173.738 24.2774L174.341 25.7522H178.658L169.189 3.46715Z" fill="#E5F2F8"/>
<path d="M174.075 14.9587L174.982 17.1416L171.057 17.5233L170.042 14.9587H174.075Z" fill="#E5F2F8"/>
<path d="M174.866 14.9587H158.415L159.779 11.598H173.44L174.866 14.9587Z" fill="#E5F2F8"/>
<path d="M166.319 5.52925L168.029 0.73291H164.234L153.976 25.7522H158.338L166.319 5.52925Z" fill="#E5F2F8"/>
<path d="M127.201 14.9587L126.949 16.5477L126.274 14.9587H127.201Z" fill="#E5F2F8"/>
<path d="M119.67 8.10366L118.649 5.5293L119.67 8.10366Z" fill="#E5F2F8"/>
<path d="M121.524 3.46715L120.362 0.73291L121.524 3.46715Z" fill="#E5F2F8"/>
<path d="M121.523 3.46715L120.362 0.73291L118.649 5.52925L119.67 8.10361L126.072 24.2774L126.675 25.7522H130.992L121.523 3.46715Z" fill="#E5F2F8"/>
<path d="M126.405 14.9587L127.312 17.1416L123.39 17.5233L122.375 14.9587H126.405Z" fill="#E5F2F8"/>
<path d="M127.202 14.9587H110.75L112.111 11.598H125.772L127.202 14.9587Z" fill="#E5F2F8"/>
<path d="M118.649 5.52925L120.362 0.73291H116.564L106.306 25.7522H110.671L118.649 5.52925Z" fill="#E5F2F8"/>
<path d="M48.371 14.9587L48.1197 16.5477L47.4443 14.9587H48.371Z" fill="#E5F2F8"/>
<path d="M40.8408 8.10366L39.8228 5.5293L40.8408 8.10366Z" fill="#E5F2F8"/>
<path d="M42.6928 3.46715L41.5312 0.73291L42.6928 3.46715Z" fill="#E5F2F8"/>
<path d="M42.694 3.46715L41.5325 0.73291L39.8228 5.52925L40.8408 8.10361L47.2424 24.2774L47.846 25.7522H52.1627L42.694 3.46715Z" fill="#E5F2F8"/>
<path fill-rule="evenodd" clip-rule="evenodd" d="M41.5325 0.73291L42.694 3.46715L40.8408 8.10361L39.8228 5.52925L41.5325 0.73291Z" fill="#E5F2F8"/>
<path fill-rule="evenodd" clip-rule="evenodd" d="M120.362 0.73291L121.523 3.46715L119.67 8.10361L118.649 5.52925L120.362 0.73291Z" fill="#E5F2F8"/>
<path fill-rule="evenodd" clip-rule="evenodd" d="M168.028 0.73291L169.189 3.46715L167.336 8.10361L166.318 5.52925L168.028 0.73291Z" fill="#E5F2F8"/>
<path d="M47.5778 14.9587L48.4848 17.1416L44.5597 17.5233L43.5449 14.9587H47.5778Z" fill="#E5F2F8"/>
<path d="M48.371 14.9587H31.9199L33.2838 11.598H46.9452L48.371 14.9587Z" fill="#E5F2F8"/>
<path d="M39.8222 5.52925L41.5319 0.73291H37.7373L27.479 25.7522H31.8414L39.8222 5.52925Z" fill="#E5F2F8"/>
<path d="M210.275 0.73291H206.151V25.7522H210.275V0.73291Z" fill="#E5F2F8"/>
<path d="M76.7947 15.1056H66.6245L65.0225 11.6079H76.8371C76.8371 11.6079 76.8436 14.7598 76.7947 15.1056Z" fill="#E5F2F8"/>
<path d="M71.2108 4.10347C71.2108 4.10347 71.71 2.42312 69.3575 1.44427C67.005 0.46543 63.7161 0.263135 61.3146 1.14736C58.9132 2.03158 54.5802 6.04158 53.9635 7.58815C53.3469 9.13473 52.8705 12.4824 52.9292 12.8935C52.9292 12.8935 55.683 8.59963 58.0323 8.59963C58.0323 8.59636 60.326 1.8456 71.2108 4.10347Z" fill="#E5F2F8"/>
<path d="M65.4646 0.187988C57.748 0.187988 52.8701 5.98274 52.8701 13.2784C54.0643 10.0547 55.5848 7.91759 57.1509 6.51458C61.1511 2.92549 65.4646 4.10663 65.4646 4.10663C69.6344 4.10663 71.9674 6.56679 71.9674 6.56679L74.3851 3.3986C74.3851 3.3986 71.69 0.187988 65.4646 0.187988Z" fill="#E5F2F8"/>
</svg>
